<?xml version="1.0" encoding="UTF-8" standalone="no"?>
<svg
   width="16.000008"
   height="15"
   viewBox="0 0 16.000008 15"
   fill="none"
   version="1.1"
   id="svg26"
   xmlns="http://www.w3.org/2000/svg"
   xmlns:svg="http://www.w3.org/2000/svg">
  <defs
     id="defs26" />
  <path
     d="m 5.7500023,10 c 0.3,0 0.5,-0.2 0.5,-0.5 0,-0.3 -0.2,-0.5 -0.5,-0.5 -0.3,0 -0.5,0.2 -0.5,0.5 0,0.3 0.2,0.5 0.5,0.5 z"
     fill="#000000"
     id="path6" />
  <path
     d="m 15.000002,2 h -2 V 0 h -1 V 2 H 4.0000023 V 0 h -1 v 2 h -2 C 0.40000226,2 2.2583008e-6,2.4 2.2583008e-6,3 v 11 c 0,0.5 0.4000000016992,1 1.0000000416992,1 H 15.000002 c 0.5,0 1,-0.5 1,-1 V 3 c 0,-0.6 -0.5,-1 -1,-1 z m 0,12 H 1.0000023 V 7 H 15.000002 Z M 1.0000023,6 V 3 h 2 v 2 h 1 V 3 h 7.9999997 v 2 h 1 V 3 h 2 v 3 z"
     fill="#000000"
     id="path7" />
  <path
     d="m 8.0000023,10 c 0.3,0 0.5,-0.2 0.5,-0.5 0,-0.3 -0.2,-0.5 -0.5,-0.5 -0.3,0 -0.5,0.2 -0.5,0.5 0,0.3 0.2,0.5 0.5,0.5 z"
     fill="#000000"
     id="path8" />
  <path
     d="m 10.250002,10 c 0.3,0 0.5,-0.2 0.5,-0.5 0,-0.3 -0.2,-0.5 -0.5,-0.5 -0.2999997,0 -0.4999997,0.2 -0.4999997,0.5 0,0.3 0.2,0.5 0.4999997,0.5 z"
     fill="#000000"
     id="path9" />
  <path
     d="m 5.7500023,11 c -0.3,0 -0.5,0.2 -0.5,0.5 0,0.3 0.2,0.5 0.5,0.5 0.3,0 0.5,-0.2 0.5,-0.5 0,-0.3 -0.2,-0.5 -0.5,-0.5 z"
     fill="#000000"
     id="path10" />
  <path
     d="m 3.5000023,10 c 0.3,0 0.5,-0.2 0.5,-0.5 0,-0.3 -0.2,-0.5 -0.5,-0.5 -0.3,0 -0.5,0.2 -0.5,0.5 0,0.3 0.2,0.5 0.5,0.5 z"
     fill="#000000"
     id="path11" />
  <path
     d="m 3.5000023,11 c -0.3,0 -0.5,0.2 -0.5,0.5 0,0.3 0.2,0.5 0.5,0.5 0.3,0 0.5,-0.2 0.5,-0.5 0,-0.3 -0.2,-0.5 -0.5,-0.5 z"
     fill="#000000"
     id="path12" />
  <path
     d="m 8.0000023,11 c -0.3,0 -0.5,0.2 -0.5,0.5 0,0.3 0.2,0.5 0.5,0.5 0.3,0 0.5,-0.2 0.5,-0.5 0,-0.3 -0.2,-0.5 -0.5,-0.5 z"
     fill="#000000"
     id="path13" />
  <path
     d="m 10.250002,11 c -0.2999997,0 -0.4999997,0.2 -0.4999997,0.5 0,0.3 0.2,0.5 0.4999997,0.5 0.3,0 0.5,-0.2 0.5,-0.5 0,-0.3 -0.2,-0.5 -0.5,-0.5 z"
     fill="#000000"
     id="path14" />
  <path
     d="m 12.500002,10 c 0.3,0 0.5,-0.2 0.5,-0.5 0,-0.3 -0.2,-0.5 -0.5,-0.5 -0.3,0 -0.5,0.2 -0.5,0.5 0,0.3 0.2,0.5 0.5,0.5 z"
     fill="#000000"
     id="path15" />
  <path
     d="m 12.500002,11 c -0.3,0 -0.5,0.2 -0.5,0.5 0,0.3 0.2,0.5 0.5,0.5 0.3,0 0.5,-0.2 0.5,-0.5 0,-0.3 -0.2,-0.5 -0.5,-0.5 z"
     fill="#000000"
     id="path16" />
</svg>
