<?xml version="1.0" encoding="UTF-8" standalone="no"?>
<svg
   width="18"
   height="17"
   viewBox="0 0 18 17"
   fill="none"
   version="1.1"
   id="svg26"
   xmlns="http://www.w3.org/2000/svg"
   xmlns:svg="http://www.w3.org/2000/svg">
  <defs
     id="defs26" />
  <path
     d="m 8.9000023,17 c -0.3,0 -0.6,-0.1 -0.8,-0.4 -5.4,-6.1 -6.7,-7.5 -7,-7.9 C 0.40000226,7.8 2.2583008e-6,6.6 2.2583008e-6,5.4 2.2583008e-6,2.4 2.4000023,0 5.5000023,0 c 1.3,0 2.5,0.5 3.5,1.3 C 10.000002,0.5 11.300002,0 12.500002,0 c 3,0 5.5,2.4 5.5,5.4 0,1.3 -0.5,2.5 -1.3,3.4 l -6.9999997,7.9 c -0.2,0.2 -0.4,0.3 -0.8,0.3 z m -6,-9.5 c 0.3,0.4 3.5,4 6.1,6.9 l 6.1999997,-7 c 0.5,-0.5 0.7,-1.2 0.7,-2 0,-1.8 -1.5,-3.3 -3.3,-3.3 -1,0 -2,0.5 -2.6999997,1.3 -0.3,0.3 -0.6,0.4 -0.9,0.4 -0.3,0 -0.6,-0.2 -0.8,-0.4 -0.7,-0.8 -1.7,-1.3 -2.7,-1.3 -1.8,0 -3.3,1.5 -3.3,3.3 -0.1,0.9 0.3,1.6 0.7,2.1 -0.1,0 -0.1,0 0,0 z"
     fill="#000000"
     id="path5" />
</svg>
