<?xml version="1.0" encoding="UTF-8" standalone="no"?>
<svg
   width="16"
   height="13.7"
   viewBox="0 0 16 13.7"
   fill="none"
   version="1.1"
   id="svg26"
   xmlns="http://www.w3.org/2000/svg"
   xmlns:svg="http://www.w3.org/2000/svg">
  <defs
     id="defs26" />
  <path
     d="M 15.299995,-1.9073486e-7 H 0.59999463 c -0.3,0 -0.6000000010937,0.20000000073486 -0.6000000010937,0.50000000073486 0,0.3 0.3000000010937,0.59999999 0.6000000010937,0.59999999 H 2.2999946 V 13.1 c 0,0.3 0.3,0.6 0.6,0.6 H 13.099995 c 0.3,0 0.6,-0.3 0.6,-0.6 V 1.0999998 h 1.7 c 0.3,0 0.6,-0.29999999 0.6,-0.59999999 0,-0.3 -0.4,-0.50000000073486 -0.7,-0.50000000073486 z M 12.499995,12.5 H 3.3999946 V 1.0999998 h 9.1000004 z"
     fill="#000000"
     id="path17" />
  <path
     d="m 6.1999946,9.6999998 c 0.3,0 0.6,-0.3 0.6,-0.6 v -5.7 c 0,-0.3 -0.3,-0.6 -0.6,-0.6 -0.3,0 -0.6,0.3 -0.6,0.6 v 5.7 c 0.1,0.3 0.3,0.6 0.6,0.6 z"
     fill="#000000"
     id="path19" />
  <path
     d="m 9.6999946,9.6999998 c 0.3,0 0.6000004,-0.3 0.6000004,-0.6 v -5.7 c 0,-0.3 -0.3000004,-0.6 -0.6000004,-0.6 -0.3,0 -0.6,0.4 -0.6,0.6 v 5.7 c 0,0.3 0.2,0.6 0.6,0.6 z"
     fill="#000000"
     id="path20" />
</svg>
