<?xml version="1.0" encoding="UTF-8" standalone="no"?>
<svg
   width="18"
   height="18"
   viewBox="0 0 18 18"
   fill="none"
   version="1.1"
   id="svg26"
   xmlns="http://www.w3.org/2000/svg"
   xmlns:svg="http://www.w3.org/2000/svg">
  <defs
     id="defs26" />
  <path
     d="m 18.000001,16.5083 -3.7,-3.6796 c 1,-1.2928 1.7,-2.9834 1.7,-4.8729 C 16.000001,3.58011 12.400001,0 8.0000006,0 3.6000006,0 6.2255859e-7,3.67956 6.2255859e-7,8.05525 6.2255859e-7,12.4309 3.6000006,16.011 8.0000006,16.011 c 1.8,0 3.5000004,-0.5966 4.9000004,-1.6906 l 3.7,3.6796 z M 8.0000006,14.0221 c -3.3,0 -6,-2.6851 -6,-5.96685 0,-3.28177 2.7,-5.96685 6,-5.96685 3.3000004,0 6.0000004,2.68508 6.0000004,5.96685 0,3.28175 -2.7,5.96685 -6.0000004,5.96685 z"
     fill="#000000"
     id="path4" />
</svg>
